Cover:  
http://www.shotpix.com/images/18992192160172146436.jpg



Release Title: B.o.B - Both of Us ft. Taylor Swift (2012)

Music video by B.o.B performing Both of Us Featuring Taylor Swift. (C) WMG.

                     1080p Full HD MP4 Video
                                 +
                      96 Kbps/VBR M4A Audio


Sing Along!
English subtitles included.



General
Format                         : MPEG-4
Format profile                 : Base Media / Version 2
Codec ID                       : mp42
File size                      : 34.7 MiB
Duration                       : 3mn 39s
Overall bit rate mode          : Variable
Overall bit rate               : 1 329 Kbps


Video
ID                             : 1
Format                         : AVC
Format/Info                    : Advanced Video Codec
Duration                       : 3mn 39s
Bit rate                       : 1 196 Kbps
Width                          : 1 920 pixels
Height                         : 940 pixels
Frame rate mode                : Variable
Frame rate                     : 23.976 fps
Stream size                    : 31.3 MiB (90%)

Audio
ID                             : 2
Format                         : AAC
Format/Info                    : Advanced Audio Codec
Format profile                 : LC
Duration                       : 3mn 39s
Bit rate mode                  : Variable
Bit rate                       : 126 Kbps
Channel(s)                     : 2 channels
Channel positions              : Front: L R
Sampling rate                  : 48.0 KHz
Stream size                    : 3.28 MiB (9%)

Subtitle                       : Yes (English)




Screens:

 
http://www.shotpix.com/images/96095339388102961195.png 
http://www.shotpix.com/images/51610873399696624223.png

Thumbs:
 
http://www.shotpix.com/images/60863106733425789170.jpg


------------------------------------------------------------------------


Notes:

* Best played on VLC Media Player.
* Install shark007 codecs in case of any kind of problem in playback (For non-VLC Media Player users).
* Alternatively, install Core AVC codecs, the fastest decoder that there is coupled with Community Center Codec Pack and play on Windows Media Player Classic.
* Read NFO
* Help in seeding this torrent as much as you can. 



Greets to: srkfan, VYTO, MgB, staff members at ExtraTorrent, TPB,KAT, 1337x, PublicHD, Ahashare,
SilverTorrent, TorrentMafia, P2PDL, and all others


Encoder Notes: Looking For Early Access To Anything You Can Provide DVDScr, R5, DVDRips, BluRay, Direct Audio, Early Music
Releases, Seedboxes, Links, Dedicated Servers anything u can provide, Advance / Promo CDs/DVDs. If You Got anything to
offer contact me at "contact@tinym.eu"


Facebook Fan Page: www . facebook . com / p2pdl

                                 Enjoy!